<?xml version="1.0" encoding="iso-8859-1"?>
<!-- Generator: Adobe Illustrator 19.0.0, SVG Export Plug-In . SVG Version: 6.00 Build 0)  -->
<svg version="1.1" id="Capa_1" xmlns="http://www.w3.org/2000/svg" xmlns:xlink="http://www.w3.org/1999/xlink" x="0px" y="0px"
	 viewBox="0 0 187.568 187.568" style="enable-background:new 0 0 187.568 187.568;" xml:space="preserve">
<g>
	<g>
		<circle style="fill:#E88542;" cx="125.447" cy="94.069" r="10"/>
		<circle style="fill:#E88542;" cx="125.447" cy="107.068" r="10"/>
		<circle style="fill:#E88542;" cx="125.447" cy="118.943" r="10"/>
		<circle style="fill:#E88542;" cx="60.265" cy="94.069" r="10"/>
		<circle style="fill:#E88542;" cx="62.581" cy="108.943" r="10"/>
		<path style="fill:#F9CDAF;" d="M105.115,117.193c0,6.282-5.093,11.375-11.375,11.375l0,0c-6.282,0-11.375-5.093-11.375-11.375
			v-16.5c0-6.282,5.093-11.375,11.375-11.375l0,0c6.282,0,11.375,5.093,11.375,11.375V117.193z"/>
		<path style="opacity:0.7;fill:#F9CDAF;enable-background:new    ;" d="M93.74,90.318c-6.282,0-11.375,5.093-11.375,11.375v6.375
			c3.668,0.863,7.486,1.334,11.417,1.334c3.901,0,7.691-0.464,11.333-1.314v-6.394C105.115,95.411,100.022,90.318,93.74,90.318z"/>
		<circle style="fill:#F9CDAF;" cx="93.782" cy="55.735" r="49.667"/>
		
			<ellipse transform="matrix(-0.412 -0.9112 0.9112 -0.412 11.5098 118.8931)" style="fill:#F9CDAF;" cx="44.117" cy="55.733" rx="13.667" ry="5.167"/>
		
			<ellipse transform="matrix(-0.412 0.9112 -0.9112 -0.412 253.3312 -52.0216)" style="fill:#F9CDAF;" cx="143.451" cy="55.729" rx="13.667" ry="5.167"/>
		
			<rect x="43.514" y="50.722" transform="matrix(0.8474 0.531 -0.531 0.8474 35.4882 -20.0263)" style="fill:#575756;" width="18.135" height="1.999"/>
		
			<rect x="134.506" y="42.653" transform="matrix(0.5313 0.8472 -0.8472 0.5313 107.3339 -90.5578)" style="fill:#575756;" width="2" height="18.136"/>
		<path style="fill:#E88542;" d="M128.857,20.571c0,0-13.071,14.367-46.492,15.997c-20.5,1-37.75,13.5-36.5,21.25
			s-18.75-56.784,40.5-57.784S128.857,20.571,128.857,20.571z"/>
		<path style="fill:#E88542;" d="M121.366,23.822c9.499,5.996,23.016,30.038,22.007,34.642s8.784-44.896-10.987-47.396
			S111.868,17.826,121.366,23.822z"/>
		<g>
			<circle style="fill:#CCEAE6;" cx="72.49" cy="58.464" r="12.375"/>
			<path style="fill:#575756;" d="M72.49,71.839c-7.375,0-13.375-6-13.375-13.375s6-13.375,13.375-13.375s13.375,6,13.375,13.375
				S79.865,71.839,72.49,71.839z M72.49,47.089c-6.272,0-11.375,5.103-11.375,11.375s5.103,11.375,11.375,11.375
				s11.375-5.103,11.375-11.375S78.762,47.089,72.49,47.089z"/>
		</g>
		<g>
			<circle style="fill:#CCEAE6;" cx="115.447" cy="58.464" r="12.375"/>
			<path style="fill:#575756;" d="M115.447,71.839c-7.375,0-13.375-6-13.375-13.375s6-13.375,13.375-13.375s13.375,6,13.375,13.375
				S122.822,71.839,115.447,71.839z M115.447,47.089c-6.272,0-11.375,5.103-11.375,11.375s5.103,11.375,11.375,11.375
				s11.375-5.103,11.375-11.375S121.719,47.089,115.447,47.089z"/>
		</g>
		<rect x="84.865" y="58.402" style="fill:#575756;" width="18.247" height="2"/>
		<path style="fill:#81AA79;" d="M137.279,187.568v-55.5c0-8.284-6.715-15-15-15H65.285c-8.284,0-15,6.716-15,15v55.5H137.279z"/>
		<rect x="64.781" y="117.069" style="fill:#575756;" width="11.5" height="21"/>
		<circle style="fill:#E88542;" cx="65.781" cy="122.07" r="10"/>
		<rect x="82.365" y="110.402" style="fill:#81AA79;" width="22.75" height="11"/>
		<rect x="111.115" y="117.068" style="fill:#575756;" width="11.5" height="21"/>
		<polyline style="fill:#575756;" points="64.781,136.568 122.615,136.568 127.281,151.401 127.281,187.568 60.115,187.568 
			60.115,151.568 		"/>
		<polygon style="fill:#9C9B9B;" points="77.699,148.735 77.699,169.235 93.782,176.568 109.865,169.235 109.865,148.735 		"/>
		<g>
			<g>
				<polygon style="fill:#575756;" points="80.041,151.401 79.041,151.401 79.041,149.901 80.541,149.901 80.541,150.901 
					80.041,150.901 				"/>
				<path style="fill:#575756;" d="M80.041,165.664h-1v-1.782h1V165.664z M80.041,162.098h-1v-1.783h1V162.098z M80.041,158.533h-1
					v-1.783h1V158.533z M80.041,154.968h-1v-1.783h1V154.968z"/>
				<polygon style="fill:#575756;" points="80.242,169.316 79.041,168.767 79.041,167.446 80.041,167.446 80.041,168.125 
					80.657,168.406 				"/>
				<path style="fill:#575756;" d="M90.819,174.137l-1.763-0.803l0.414-0.91l1.763,0.803L90.819,174.137z M87.293,172.531
					l-1.763-0.804l0.415-0.91l1.763,0.804L87.293,172.531z M83.768,170.924l-1.763-0.804l0.415-0.91l1.763,0.804L83.768,170.924z"/>
				<polygon style="fill:#575756;" points="93.698,175.451 92.58,174.941 92.995,174.031 93.698,174.351 94.4,174.031 
					94.815,174.941 				"/>
				<path style="fill:#575756;" d="M96.577,174.137l-0.414-0.91l1.763-0.804l0.414,0.91L96.577,174.137z M100.102,172.53
					l-0.414-0.91l1.763-0.803l0.414,0.91L100.102,172.53z M103.629,170.924l-0.416-0.91l1.762-0.804l0.416,0.91L103.629,170.924z"/>
				<polygon style="fill:#575756;" points="107.153,169.316 106.739,168.406 107.356,168.125 107.356,167.446 108.356,167.446 
					108.356,168.767 				"/>
				<path style="fill:#575756;" d="M108.356,165.663h-1v-1.783h1V165.663z M108.356,162.097h-1v-1.783h1V162.097z M108.356,158.532
					h-1v-1.783h1V158.532z M108.356,154.966h-1v-1.782h1V154.966z"/>
				<polygon style="fill:#575756;" points="108.356,151.401 107.356,151.401 107.356,150.901 106.856,150.901 106.856,149.901 
					108.356,149.901 				"/>
				<path style="fill:#575756;" d="M104.831,150.901h-2.024v-1h2.024V150.901z M100.782,150.901h-2.023v-1h2.023V150.901z
					 M96.734,150.901H94.71v-1h2.024V150.901z M92.686,150.901h-2.024v-1h2.024V150.901z M88.637,150.901h-2.024v-1h2.024V150.901z
					 M84.589,150.901h-2.024v-1h2.024V150.901z"/>
			</g>
		</g>
		<path style="fill:#E88542;" d="M72.49,132.07c-4.096,0-7.416,5.485-7.416,12.251c0,5.811,2.452,10.665,5.738,11.923
			c-0.386-0.203-2.093-1.381-0.905-5.84c0,0,1.166,4.834,2.583,6.167c0.433,0,0.855-0.074,1.269-0.191
			c0.008-0.047,0.647-3.825,0.482-6.393c-0.167-2.582,1.866,3.785,1.684,5.186c2.366-2.047,3.982-6.135,3.982-10.852
			C79.907,137.555,76.586,132.07,72.49,132.07z"/>
		<path style="fill:#CCEAE6;" d="M75,129.482c0.819,1.977-0.12,4.244-2.097,5.063l-2.31,0.957c-1.977,0.818-4.244-0.12-5.063-2.097
			l0,0c-0.819-1.977,0.12-4.244,2.097-5.063l2.31-0.957C71.914,126.566,74.181,127.505,75,129.482L75,129.482z"/>
		<circle style="fill:#575756;" cx="143.19" cy="65.402" r="1.833"/>
		<circle style="fill:#575756;" cx="44.897" cy="65.402" r="1.833"/>
	</g>
	<path style="fill:#AD3661;" d="M96.338,84.069c-0.968,0-1.82,0.478-2.35,1.205c-0.528-0.727-1.38-1.205-2.348-1.205
		c-1.457,0-6.172,2.216-6.172,2.216c0,0.07,4.193,5.591,8.52,5.591c4.328,0,8.52-5.591,8.52-5.591
		C102.509,86.092,97.794,84.069,96.338,84.069z"/>
</g>
<g>
</g>
<g>
</g>
<g>
</g>
<g>
</g>
<g>
</g>
<g>
</g>
<g>
</g>
<g>
</g>
<g>
</g>
<g>
</g>
<g>
</g>
<g>
</g>
<g>
</g>
<g>
</g>
<g>
</g>
</svg>
