<svg width="682" height="682" viewBox="0 0 682 682" fill="none" xmlns="http://www.w3.org/2000/svg">
<path d="M572.452 45.9564H108.882C60.4136 45.9564 20.9795 85.3827 20.9795 133.859V417.554C20.9795 465.921 60.2419 505.285 108.57 505.456V634.194L293.58 505.456H572.452C620.92 505.456 660.354 466.022 660.354 417.554V133.859C660.354 85.3827 620.92 45.9564 572.452 45.9564V45.9564ZM622.891 417.554C622.891 445.363 600.265 467.993 572.452 467.993H281.826L146.033 562.487V467.993H108.882C81.0692 467.993 58.4429 445.363 58.4429 417.554V133.859C58.4429 106.042 81.0692 83.4198 108.882 83.4198H572.452C600.265 83.4198 622.891 106.042 622.891 133.859V417.554Z" fill="#3282B8"/>
<path d="M192.105 178.331H489.229V215.794H192.105V178.331Z" fill="#3282B8"/>
<path d="M192.105 258.253H489.229V295.716H192.105V258.253Z" fill="#3282B8"/>
<path d="M192.105 338.175H489.229V375.638H192.105V338.175Z" fill="#3282B8"/>
</svg>
