<svg width="512" height="512" viewBox="0 0 512 512" fill="none" xmlns="http://www.w3.org/2000/svg">
<path d="M511.563 434.259C509.835 291.93 387.143 176.017 234.476 170.84V95.999C234.476 78.354 220.134 64 202.502 64C194.571 64 186.911 67.042 180.978 72.562C180.978 72.562 46.15 197.391 7.369 236.317C2.623 241.109 0 248.088 0 255.994C0 263.9 2.623 270.879 7.369 275.681C46.15 314.596 180.978 439.426 180.978 439.426C186.911 444.947 194.571 447.988 202.502 447.988C220.133 447.988 234.476 433.634 234.476 415.989V341.398C387.955 343.554 490.268 392.001 490.268 437.322C490.268 443.218 495.035 447.988 500.926 447.988C501.093 448.009 501.259 447.998 501.342 447.988C507.233 447.988 512 443.217 512 437.322C512 436.259 511.854 435.228 511.563 434.259Z" fill="#3282B8"/>
</svg>
