<svg width="512" height="512" viewBox="0 0 512 512" fill="none" xmlns="http://www.w3.org/2000/svg">
<g clip-path="url(#clip0)">
<path d="M495.984 240.008H293.323C284.491 240.008 277.323 232.841 277.323 224.009C277.323 215.177 284.491 208.009 293.323 208.009H495.984C504.816 208.009 511.984 215.177 511.984 224.009C511.984 232.841 504.816 240.008 495.984 240.008Z" fill="#3282B8"/>
<path d="M415.987 320.006C411.89 320.006 407.796 318.447 404.679 315.315C398.429 309.061 398.429 298.928 404.679 292.679L473.372 223.989L404.679 155.296C398.429 149.046 398.429 138.914 404.679 132.664C410.933 126.41 421.065 126.41 427.315 132.664L507.312 212.662C513.562 218.911 513.562 229.044 507.312 235.294L427.315 315.291C424.178 318.447 420.085 320.006 415.987 320.006V320.006Z" fill="#3282B8"/>
<path d="M170.663 512C166.096 512 161.764 511.359 157.436 510.016L29.0538 467.243C11.5856 461.142 0 444.865 0 426.67V42.6824C0 19.1519 19.1361 0.0158081 42.6666 0.0158081C47.229 0.0158081 51.5609 0.656414 55.8928 2.00012L184.272 44.7722C201.744 50.8736 213.325 67.1504 213.325 85.3452V469.333C213.325 492.864 194.193 512 170.663 512ZM42.6666 32.0148C36.7996 32.0148 31.999 36.8154 31.999 42.6824V426.67C31.999 431.213 35.0497 435.436 39.4011 436.951L167.182 479.532C168.1 479.829 169.295 480.001 170.663 480.001C176.53 480.001 181.326 475.2 181.326 469.333V85.3452C181.326 80.8023 178.276 76.5798 173.924 75.0642L46.1431 32.4835C45.2251 32.1867 44.0299 32.0148 42.6666 32.0148V32.0148Z" fill="#3282B8"/>
<path d="M325.322 170.678C316.49 170.678 309.322 163.511 309.322 154.679V58.6819C309.322 43.9832 297.358 32.0148 282.659 32.0148H42.6667C33.835 32.0148 26.6672 24.8471 26.6672 16.0153C26.6672 7.18355 33.835 0.0158081 42.6667 0.0158081H282.659C315.022 0.0158081 341.321 26.3197 341.321 58.6819V154.679C341.321 163.511 334.154 170.678 325.322 170.678Z" fill="#3282B8"/>
<path d="M282.659 448.002H197.326C188.494 448.002 181.326 440.834 181.326 432.002C181.326 423.171 188.494 416.003 197.326 416.003H282.659C297.358 416.003 309.322 404.034 309.322 389.336V293.339C309.322 284.507 316.49 277.339 325.322 277.339C334.154 277.339 341.321 284.507 341.321 293.339V389.336C341.321 421.698 315.021 448.002 282.659 448.002V448.002Z" fill="#3282B8"/>
</g>
<defs>
<clipPath id="clip0">
<rect width="512" height="512" fill="white"/>
</clipPath>
</defs>
</svg>
