<svg width="512" height="512" viewBox="0 0 512 512" fill="none" xmlns="http://www.w3.org/2000/svg">
<path d="M0 192V448C0 465.672 14.3262 480 32 480H128V160H32C14.3262 160 0 174.326 0 192Z" fill="#F4EEFF"/>
<path d="M452.906 191.993H358.375C350.109 191.993 345.969 186.478 344.578 184.103C343.188 181.743 340.375 175.446 344.375 168.228L377.703 108.212C385.016 95.0713 385.766 79.6182 379.781 65.8212C373.797 52.0087 361.984 41.9931 347.375 38.3525L323.875 32.4775C318.156 31.04 312.094 32.8681 308.109 37.29L180.516 179.04C167.281 193.774 160 212.774 160 232.556V399.993C160 444.102 195.891 479.993 240 479.993L399.172 479.977C435.109 479.977 466.844 455.774 476.328 421.134L510.484 264.383C511.484 260.024 512 255.555 512 251.087C512 218.508 485.484 191.993 452.906 191.993L452.906 191.993Z" fill="#F4EEFF"/>
</svg>
