<svg width="512" height="512" viewBox="0 0 512 512" fill="none" xmlns="http://www.w3.org/2000/svg">
<g clip-path="url(#clip0)">
<path d="M467.819 431.851L431.168 370.795C414.272 342.614 405.333 310.358 405.333 277.483V224C405.333 141.675 338.325 74.667 256 74.667C173.675 74.667 106.667 141.675 106.667 224V277.483C106.667 310.358 97.7281 342.614 80.8321 370.795L44.1811 431.851C42.1971 435.136 42.1541 439.254 44.0321 442.582C45.9311 445.931 49.4931 448.001 53.3331 448.001H458.666C462.506 448.001 466.069 445.932 467.967 442.582C469.845 439.253 469.803 435.136 467.819 431.851ZM72.1711 426.667L99.1151 381.76C118.016 350.272 128 314.219 128 277.483V224C128 153.408 185.408 96 256 96C326.592 96 384 153.408 384 224V277.483C384 314.219 393.984 350.272 412.864 381.76L439.829 426.667H72.1711Z" fill="#3282B8"/>
<path d="M256 0C232.469 0 213.333 19.136 213.333 42.667V85.334C213.333 91.221 218.112 96 224 96C229.888 96 234.667 91.221 234.667 85.333V42.667C234.667 30.891 244.224 21.334 256 21.334C267.776 21.334 277.333 30.891 277.333 42.667V85.334C277.333 91.221 282.112 96 288 96C293.888 96 298.667 91.221 298.667 85.333V42.667C298.667 19.136 279.531 0 256 0Z" fill="#3282B8"/>
<path d="M302.165 431.936C299.157 426.859 292.65 425.195 287.552 428.117C282.453 431.104 280.747 437.653 283.733 442.73C286.506 447.445 288.021 453.098 288.021 458.666C288.021 476.309 273.664 490.666 256.021 490.666C238.378 490.666 224.021 476.309 224.021 458.666C224.021 453.098 225.536 447.445 228.309 442.73C231.274 437.631 229.568 431.103 224.49 428.117C219.349 425.194 212.863 426.858 209.877 431.936C205.162 440 202.666 449.237 202.666 458.667C202.667 488.085 226.581 512 256 512C285.419 512 309.333 488.085 309.376 458.667C309.376 449.237 306.88 440 302.165 431.936Z" fill="#3282B8"/>
</g>
<defs>
<clipPath id="clip0">
<rect width="512" height="512" fill="white"/>
</clipPath>
</defs>
</svg>
