<svg width="512" height="512" viewBox="0 0 512 512" fill="none" xmlns="http://www.w3.org/2000/svg">
<g clip-path="url(#clip0)">
<path d="M436.978 75.0207C336.96 -24.9996 175.056 -25.0156 75.0216 75.0207C-24.9997 175.041 -25.0147 336.943 75.0216 436.978C175.04 536.999 336.944 537.014 436.978 436.978C536.999 336.958 537.013 175.056 436.978 75.0207ZM426.281 400.494C414.323 389.801 401.531 380.337 388.048 372.182C396.96 341.398 402.239 307.523 403.487 272.31H478.735C475.333 319.774 457.096 364.299 426.281 400.494ZM33.2637 272.31H108.511C109.759 307.523 115.039 341.398 123.951 372.182C110.468 380.337 97.6761 389.801 85.7179 400.494C54.903 364.299 36.6669 319.774 33.2637 272.31V272.31ZM85.7189 111.505C97.6771 122.198 110.469 131.662 123.952 139.817C115.04 170.601 109.76 204.476 108.512 239.689H33.2637C36.6669 192.226 54.903 147.701 85.7189 111.505V111.505ZM239.69 143.188C213.09 141.286 187.442 134.734 163.664 123.926C177.493 88.3159 202.986 45.6058 239.69 35.0214V143.188ZM239.69 175.869V239.69H141.146C142.275 209.903 146.495 181.299 153.515 155.127C180.535 166.94 209.596 173.994 239.69 175.869V175.869ZM239.69 272.31V336.131C209.596 338.006 180.535 345.06 153.515 356.873C146.495 330.701 142.275 302.097 141.146 272.31H239.69ZM239.69 368.812V476.978C202.988 466.393 177.495 423.688 163.664 388.074C187.442 377.266 213.09 370.714 239.69 368.812ZM272.31 368.812C298.91 370.714 324.558 377.266 348.335 388.074C334.506 423.685 309.014 466.393 272.31 476.978V368.812ZM272.31 336.131V272.31H370.854C369.725 302.097 365.504 330.701 358.485 356.873C331.464 345.06 302.404 338.006 272.31 336.131ZM272.31 239.69V175.869C302.404 173.994 331.464 166.94 358.485 155.127C365.504 181.299 369.725 209.903 370.854 239.69H272.31ZM272.31 143.188V35.0224C309.014 45.6068 334.507 88.3169 348.335 123.927C324.558 134.734 298.91 141.286 272.31 143.188ZM345.57 51.3061C366.448 60.4486 385.926 72.8455 403.387 88.227C395.075 95.555 386.305 102.2 377.148 108.142C369.016 88.0061 358.627 68.4381 345.57 51.3061V51.3061ZM134.851 108.142C125.693 102.2 116.924 95.555 108.612 88.227C126.073 72.8455 145.551 60.4486 166.429 51.3061C153.372 68.4401 142.983 88.0081 134.851 108.142V108.142ZM134.852 403.858C142.983 423.993 153.374 443.562 166.43 460.694C145.552 451.551 126.074 439.154 108.613 423.773C116.924 416.445 125.694 409.8 134.852 403.858V403.858ZM377.148 403.858C386.305 409.8 395.075 416.445 403.387 423.772C385.926 439.153 366.448 451.55 345.57 460.693C358.626 443.563 369.016 423.994 377.148 403.858ZM403.488 239.69C402.24 204.477 396.961 170.601 388.049 139.818C401.532 131.663 414.323 122.199 426.282 111.506C457.097 147.701 475.333 192.226 478.736 239.69H403.488Z" fill="#3282B8"/>
</g>
<defs>
<clipPath id="clip0">
<rect width="512" height="512" fill="white"/>
</clipPath>
</defs>
</svg>
